<svg id="b6f2df8f-3877-46b3-9cc1-dbfb929a4235" data-name="Layer 1" xmlns="http://www.w3.org/2000/svg" viewBox="0 0 261.8881 174.5786"><defs><style>.b8b2ce9b-adc4-4f8d-ae84-72c82c30de2a{fill:none;stroke:#000;stroke-miterlimit:10;stroke-width:3px;}</style></defs><path class="b8b2ce9b-adc4-4f8d-ae84-72c82c30de2a" d="M1211.0892,636.4692S1302.7208,376.6533,1436.4071,494.6" transform="translate(-1176.9385 -462.3895)"/><polygon points="243.889 35.15 243.759 32.15 258.538 31.526 256.836 16.831 259.819 16.488 261.888 34.386 243.889 35.15"/><path d="M1176.9385,513.1025a4.4788,4.4788,0,0,1,2.3037-2.7793,14.9169,14.9169,0,0,1,5.7246-.76q.854,0,4.3223.0713a9.9438,9.9438,0,0,1,4.4414,1.0923,7.43,7.43,0,0,1,3.0049,2.8857,8.4882,8.4882,0,0,1,1.081,4.335,8.0094,8.0094,0,0,1-2.3633,6.021,8.481,8.481,0,0,1-6.164,2.2919h-8.0518l.0234-.2373h.2852a1.4609,1.4609,0,0,0,1.0215-.3921,1.5251,1.5251,0,0,0,.499-.9619V510.3472a8.0345,8.0345,0,0,0-4.2041.9262,4.7353,4.7353,0,0,0-.9736.8672,7.7343,7.7343,0,0,0-.6895,1.0567Zm7.6719-2.7553v15.2011h4.6787a6.23,6.23,0,0,0,4.8808-2.09,7.9661,7.9661,0,0,0,1.8643-5.51,8.95,8.95,0,0,0-.8428-3.9786,6.3458,6.3458,0,0,0-2.375-2.6718,6.5555,6.5555,0,0,0-3.5273-.95Z" transform="translate(-1176.9385 -462.3895)"/><path d="M1205.0605,510.3711H1203.54v14.1558a1.4406,1.4406,0,0,0,.4395,1.0571,1.4692,1.4692,0,0,0,1.081.4394h.2842l.0244.2373h-5.2021v-.2373h.3086a1.4616,1.4616,0,0,0,1.0576-.4277,1.4854,1.4854,0,0,0,.4629-1.0449V511.3687a1.5281,1.5281,0,0,0-.4629-1.0572,1.442,1.442,0,0,0-1.0576-.4394h-.3086v-.2373h6.4131a4.6708,4.6708,0,0,1,3.3965,1.1992,4.1457,4.1457,0,0,1,1.2353,3.1113,4.9449,4.9449,0,0,1-1.1758,3.3018,3.6194,3.6194,0,0,1-2.8623,1.3891,3.2722,3.2722,0,0,1,.8438.6534,8.5172,8.5172,0,0,1,.8662,1.01q2.0435,2.9209,2.66,3.5982.6183.6766.879.9262a7.039,7.039,0,0,0,.57.4868,3.2444,3.2444,0,0,0,.6172.38,3.3423,3.3423,0,0,0,1.4726.3325v.2373h-1.3057a4.8631,4.8631,0,0,1-1.9-.3681,4.7636,4.7636,0,0,1-1.3184-.76,8.5608,8.5608,0,0,1-.76-.76q-.3207-.3684-1.77-2.4585t-1.6865-2.3868c-.1582-.1977-.3252-.392-.499-.582a2.1453,2.1453,0,0,0-1.52-.8076V517.9a4.228,4.228,0,0,0,.4981.0234c.206,0,.4589-.0078.7607-.0234q2.9443-.0719,3.7051-2.47a3.1208,3.1208,0,0,0,.1426-.8906v-.5347a4.1743,4.1743,0,0,0-.8321-2.565,2.7749,2.7749,0,0,0-2.1132-1.0454Q1205.9155,510.3711,1205.0605,510.3711Z" transform="translate(-1176.9385 -462.3895)"/><path d="M1231.1152,526.0234h.19v.2373h-5.3438v-.2373h.2129a.8909.8909,0,0,0,.749-.3208,1.0074,1.0074,0,0,0,.2491-.6059,1.8147,1.8147,0,0,0-.0948-.57l-1.52-4.0376h-6.4131l-1.5908,4.0615a1.7549,1.7549,0,0,0-.0957.5581.9923.9923,0,0,0,.25.5937.8877.8877,0,0,0,.7481.3208h.2138v.2373h-4.7744v-.2373h.2139a2.0771,2.0771,0,0,0,1.164-.38,2.7206,2.7206,0,0,0,.9258-1.1162l5.3682-12.7784a8.6957,8.6957,0,0,0,.8789-2.4463h.2139l6.3652,15.2247a2.5644,2.5644,0,0,0,.9023,1.1162A2.1091,2.1091,0,0,0,1231.1152,526.0234Zm-11.6855-6.247h5.8428l-2.85-7.6241Z" transform="translate(-1176.9385 -462.3895)"/><path d="M1233.9775,524.1943a9.4534,9.4534,0,0,1,0-12.5053,8.2928,8.2928,0,0,1,6.1641-2.3868,10.3867,10.3867,0,0,1,5.7715,1.6148l.4746,3.3491h-.2139a5.2843,5.2843,0,0,0-2.1015-3.147,6.6948,6.6948,0,0,0-3.9307-1.1045,6.1062,6.1062,0,0,0-4.8809,2.1851,9.7708,9.7708,0,0,0,0,11.4839,6.1889,6.1889,0,0,0,4.8809,2.1973,7.9382,7.9382,0,0,0,2.9326-.5464,7.6128,7.6128,0,0,0,2.4346-1.52V519.61a.9883.9883,0,0,0-.32-.7959,1.3338,1.3338,0,0,0-.8906-.273h-.38v-.2378h4.6552v.2378h-.3564a1.3232,1.3232,0,0,0-.9023.273.946.946,0,0,0-.2852.7959v3.9189a7.5047,7.5047,0,0,1-1.4727,1.4487,8.2188,8.2188,0,0,1-2.292,1.1284,9.6824,9.6824,0,0,1-3.123.4869A8.3951,8.3951,0,0,1,1233.9775,524.1943Z" transform="translate(-1176.9385 -462.3895)"/></svg>