<?xml version="1.0" encoding="utf-8"?>
<!-- Generator: Adobe Illustrator 25.4.1, SVG Export Plug-In . SVG Version: 6.00 Build 0)  -->
<svg version="1.1" id="Layer_1" xmlns="http://www.w3.org/2000/svg" xmlns:xlink="http://www.w3.org/1999/xlink" x="0px" y="0px"
	 viewBox="0 0 485.1 750" style="enable-background:new 0 0 485.1 750;" xml:space="preserve">
<style type="text/css">
	.st0{fill:#FCFCFC;}
</style>
<g id="Layer_2_00000153673994730516926230000012629790026934911399_">
	<path class="st0" d="M450.7,687.4v-22.9h-10.5V458.7c0.5-9.5,7-13.2,5.5-18.2c0.8,1.3,4.2,2.6,6.4-0.9c1.5-2.5,0.7-5.8-1.8-7.3
		c-0.7-0.4-1.5-0.7-2.4-0.8c-2.2-0.2-4.2,1.1-5,3.1c0.4-1.9,1.1-3.7,2.2-5.3c1.1-1.8,1.5-3.9,1.1-6c0.2,0.8,1,2.2,3.3,2.5
		c3.5,0.5,4.1-3.6,4.1-3.6c4.3-0.1,7.8-3.5,8.1-7.8c0.9-7.8-8.1-10.9-8.1-10.9h23.2v-87l-4.6,10.6l-4.8-3.8l-5,4.5l-5-4.5l-4.2,4.5
		l-5.6-5.1l-4.5,5.1l-3.6-4.7l-4.2,4.7v-34.6l-11.4,17v-49.6h-33.5V239h-29.6v-18.6h-37.5v-20.3h-57.9l-0.2-45.4l-5.8,6.2l0.9-12.6
		l-6.9,6.7c2.1-5.2,2.2-11.1,0.3-16.4c-3.3-8.9-4.7-13-4.7-13l5.9-0.3v-14l-5.6,5.3v-6.9l3.9-6.5l-6.7-84.6l-2.8-1.7
		c0,0,3.9-2.6,2.4-6.7S242.6,0,242.6,0s-2.1,6.1-3.6,10.1s2.4,6.7,2.4,6.7l-2.8,1.8l-6.7,84.6l3.9,6.5v6.9l-5.6-5.3v14l5.9,0.3
		c0,0-1.4,4.1-4.7,13c-1.9,5.3-1.8,11.1,0.3,16.4l-6.9-6.7l0.9,12.6l-5.8-6.2l-0.2,45.4H162v20.3h-37.5V239H94.8v21.7H61.3v49.6
		l-11.4-17V328l-4.2-4.7l-3.6,4.7l-4.5-5.2l-5.6,5.1l-4.2-4.5l-5,4.5l-5-4.5l-4.8,3.8l-4.6-10.6v87h23.2c0,0-9,3.1-8.1,10.9
		c0.3,4.3,3.8,7.7,8.1,7.8c0,0,0.6,4,4.1,3.6c2.4-0.3,3.1-1.7,3.3-2.5c-0.3,2.1,0.1,4.2,1.1,6.1c1.1,1.6,1.9,3.4,2.2,5.3
		c-0.8-2-2.8-3.3-5-3.1c-2.9,0.2-5.2,2.8-4.9,5.7c0.1,0.8,0.3,1.7,0.8,2.4c2.2,3.5,5.6,2.2,6.4,0.9c-1.5,5.1,5,8.8,5.5,18.2v205.8
		H34.5v22.9H0V750h485.1v-62.6H450.7z M99.4,619.9H89c-4.4-26.9-11.6-53.2-21.6-78.5c25.2-38.8,32.4-74.5,32.4-74.5L99.4,619.9z
		 M151.9,619.1h-32.4V421.3c0,0,17.3-0.6,20.1-0.6c-0.9,2,0.1,4.6,2.9,4.6s4-1.5,4.9-4.1c2.2,3.8,2.2,13.3,2.2,13.3
		c-0.6-1-1.1-2.2-4.4-2.4s-5.4,4-3.4,7s5.1,0.4,5.1,0.4s0.6-0.5,1.5,4.6c0.5,6.6,3.5,9.6,3.5,9.6V619.1z M159.2,273.6l17,23.6
		l4.4-8.1v-29l10.8,16l2.7-4.4v-34l9.1,13.3l39.1-76.7l39.1,75.8l7.6-12.8v31l4.9,6.4l10.6-15.7v29.5l4.4,7.4l15.5-21.6v38.9H300
		l-56.9-106.6l-59.2,107.2l-24.7,0.1V273.6z M234.9,280.4c-0.2-2.8,7.1-14,7.1-14s3.9,6.5,6.2,11.3s-1.2,9.6-0.7,9.5
		s4.3-1.2,5.4-3.4c5.4,7,6.1,16.8,0.2,24.4c-12.8,7.3-23.6,1.8-26.6-6.8s4.9-18.5,4.9-18.5c0.2,2.4,4.8,4.3,5.1,4.4
		C235.7,285.1,235.2,282.8,234.9,280.4L234.9,280.4z M296.8,585.3c-6.7,32.4-7.9,36.2-7.9,36.2h-92.6c0,0-1.2-3.7-7.9-36.2
		s-15.1-41.6-15.1-41.6s24.8-28,40.1-52.5c15.3-24.5,27.1-77.4,27.1-77.4h4.3c0,0,11.7,52.9,27.1,77.4s40.1,52.5,40.1,52.5
		S303.5,552.9,296.8,585.3z M364.2,619.1h-32.4V453.7c0,0,3-3,3.5-9.6c0.9-5.1,1.5-4.6,1.5-4.6s3.1,2.6,5.1-0.4s-0.1-7.1-3.4-7
		s-3.8,1.4-4.4,2.4c0,0,0-9.5,2.2-13.3c0.9,2.6,2.1,4.1,4.9,4.1c1.8,0,3.2-1.4,3.2-3.1c0-0.5-0.1-1.1-0.4-1.5
		c2.8,0,20.1,0.6,20.1,0.6V619.1z M394.6,619.9h-10.4l-0.4-153c0,0,7.2,35.7,32.4,74.5C406.3,566.7,399,593,394.6,619.9z"/>
</g>
</svg>
