<svg xmlns="http://www.w3.org/2000/svg" viewBox="0 0 1080 1080"><defs><style>.cls-1{fill:#fff;}</style></defs><g id="Layer_2" data-name="Layer 2"><path class="cls-1" d="M748.08,852.41V829.54H737.62V623.72c.45-9.45,7-13.18,5.46-18.25.79,1.3,4.17,2.64,6.37-.9a5.34,5.34,0,0,0-4.17-8.11,5,5,0,0,0-5,3.11,13.3,13.3,0,0,1,2.25-5.31,9.09,9.09,0,0,0,1.13-6c.24.85,1,2.19,3.32,2.49,3.5.45,4.1-3.6,4.1-3.6a8.28,8.28,0,0,0,8.07-7.76c.9-7.77-8.07-10.86-8.07-10.86h23.21V481.54l-4.61,10.62-4.83-3.75-5,4.52-5-4.52-4.22,4.52L745,487.79l-4.52,5.14-3.59-4.69-4.22,4.69V458.29l-11.39,17V425.66H687.73V404H658.08V385.4H620.62V365.1H562.71l-.16-45.42-5.77,6.24.93-12.63L550.86,320a22.68,22.68,0,0,0,.3-16.38c-3.28-8.89-4.68-13-4.68-13l5.93-.31v-14l-5.62,5.31v-6.88l3.9-6.55L544,183.58l-2.82-1.74s3.9-2.58,2.4-6.66S540,165,540,165s-2.06,6.08-3.56,10.14,2.41,6.66,2.41,6.66L536,183.58l-6.72,84.59,3.91,6.55v6.88l-5.62-5.31v14l5.93.31s-1.41,4.06-4.68,13a22.68,22.68,0,0,0,.3,16.38l-6.86-6.69.94,12.63-5.78-6.24-.15,45.42H459.38v20.3H421.92V404H392.26v21.69H358.71v49.63l-11.4-17v34.64l-4.21-4.69-3.59,4.69L335,487.79l-5.62,5.14-4.21-4.52-5,4.52-5-4.52-4.84,3.75-4.61-10.62v86.95h23.21s-9,3.09-8.07,10.86a8.28,8.28,0,0,0,8.07,7.76s.61,4,4.1,3.6c2.36-.31,3.1-1.67,3.33-2.51a9,9,0,0,0,1.13,6.06,13.37,13.37,0,0,1,2.24,5.31,5,5,0,0,0-5-3.11,5.35,5.35,0,0,0-4.17,8.11c2.2,3.54,5.58,2.2,6.37.9-1.52,5.07,5,8.8,5.47,18.25V829.54H331.91v22.87H297.43V915H782.57V852.41Zm-351.22-67.5H386.44a381.78,381.78,0,0,0-21.62-78.5c25.23-38.84,32.44-74.5,32.44-74.5Zm52.46-.81H416.88V586.27s17.34-.6,20.09-.6c-.88,2,.12,4.63,2.87,4.63s4-1.5,4.88-4.13c2.25,3.76,2.25,13.26,2.25,13.26-.62-1-1.12-2.25-4.37-2.36s-5.38,4-3.38,7,5.13.38,5.13.38.62-.5,1.5,4.63c.5,6.63,3.47,9.63,3.47,9.63Zm7.3-345.49,17,23.61L478,454.1v-29l10.82,16,2.7-4.42V402.72l9.1,13.29,39.08-76.69,39.08,75.83,7.62-12.79v31l4.92,6.38L601.89,424v29.49l4.43,7.38,15.48-21.63v38.85l-24.4,0L540.5,371.51,481.3,478.7l-24.68.1Zm75.74,6.81c-.17-2.83,7.09-14,7.09-14s3.94,6.47,6.21,11.31-1.24,9.6-.73,9.48,4.33-1.23,5.37-3.39c5.36,7,6.08,16.81.2,24.43-12.78,7.32-23.61,1.76-26.6-6.8s4.92-18.55,4.92-18.55c.17,2.39,4.83,4.31,5.13,4.42A33.15,33.15,0,0,1,532.36,445.42ZM594.25,750.3c-6.69,32.44-7.93,36.16-7.93,36.16H493.67s-1.24-3.72-7.92-36.16-15.11-41.6-15.11-41.6,24.77-28,40.12-52.5,27.06-77.41,27.06-77.41h4.35s11.71,52.88,27.06,77.41,40.12,52.5,40.12,52.5S600.93,717.86,594.25,750.3Zm67.39,33.8H629.2V618.71s3-3,3.47-9.63c.87-5.13,1.5-4.63,1.5-4.63s3.13,2.62,5.13-.38-.13-7.14-3.38-7-3.75,1.36-4.38,2.36c0,0,0-9.5,2.25-13.26.88,2.63,2.13,4.13,4.88,4.13a3.17,3.17,0,0,0,2.88-4.63c2.75,0,20.09.6,20.09.6Zm30.43.81H681.66l-.4-153s7.21,35.66,32.44,74.5A381.63,381.63,0,0,0,692.07,784.91Z"/></g></svg>