<?xml version="1.0" encoding="utf-8"?>
<!-- Generator: Adobe Illustrator 25.4.1, SVG Export Plug-In . SVG Version: 6.00 Build 0)  -->
<svg version="1.1" id="Layer_1" xmlns="http://www.w3.org/2000/svg" xmlns:xlink="http://www.w3.org/1999/xlink" x="0px" y="0px"
	 viewBox="0 0 591.7 582.7" style="enable-background:new 0 0 591.7 582.7;" xml:space="preserve">
<style type="text/css">
	.st0{fill:none;stroke:#F5F0E8;stroke-width:13;stroke-miterlimit:10;}
	.st1{fill:none;stroke:#F5F0E8;stroke-width:8;stroke-miterlimit:10;}
</style>
<g id="Layer_2_00000111153505489509919880000011237173403136967611_">
	<polyline class="st0" points="431.8,301.6 294.8,438.7 160.1,304 	"/>
	<path class="st1" d="M72.3,13.4h411.9c28.9,0,52.3,23.4,52.3,52.3v411.9c0,28.9-23.4,52.3-52.3,52.3H72.3
		c-28.9,0-52.3-23.4-52.3-52.3V65.7C20,36.8,43.4,13.4,72.3,13.4z"/>
	<path class="st1" d="M107,48.1h411.9c28.9,0,52.3,23.4,52.3,52.3v411.9c0,28.9-23.4,52.3-52.3,52.3H107
		c-28.9,0-52.3-23.4-52.3-52.3V100.4C54.7,71.5,78.1,48.1,107,48.1z"/>
	<line class="st0" x1="294.8" y1="438.7" x2="294.8" y2="126.2"/>
</g>
</svg>
