<?xml version="1.0" encoding="UTF-8"?><svg id="a" xmlns="http://www.w3.org/2000/svg" viewBox="0 0 1000 1000"><defs><style>.b{fill:#fff;}.c{stroke-width:22px;}.c,.d{fill:none;stroke:#fff;stroke-miterlimit:10;}.d{stroke-width:25px;}</style></defs><path class="d" d="M623.64,350.1c45.97,30.77,77.37,92.68,77.37,164.04s-32.21,134.85-79.14,165.2"/><path class="d" d="M665.8,290.78c64.17,42.95,108,129.36,108,228.97s-44.96,188.23-110.47,230.6"/><path class="d" d="M719.13,222.5c83.22,55.7,140.07,167.77,140.07,296.95s-58.31,244.11-143.27,299.05"/><path class="c" d="M140.8,277.5S239.36,51.58,439.8,143.5c181,83,159,729-67,735-102,0-121-96-121-96"/><path class="b" d="M235.16,447.55c9.01,24.42,20.77,45.79,35.77,65.38,7.1,9.26,7.88,14.9,2.52,19.2-5.62,4.51-11.13,2.54-18.34-7.45-34.64-48.04-55.65-100.65-52.88-160.95,2.56-55.74,39.15-94.83,94.41-102.07,42.93-5.62,79.34,9.35,111.68,35.58,48.99,39.73,76.44,92.25,87.05,153.79,11.17,64.79,.68,127.03-23.94,187.35-3,7.35-7.84,10.07-13.66,7.94-5.8-2.12-7.66-8.01-4.53-15.62,12.99-31.66,22.61-64.28,25.61-98.44,7.21-81.95-13.42-154.5-74.6-212.35-21.49-20.33-46.91-34.02-76.6-38.82-47.16-7.62-90.32,18.31-102,61.56-4.92,18.22-5.02,36.76-2.73,55.33,.9,7.31,2.8,14.49,3.83,21.79,.83,5.9,3.47,7.89,9.7,8.26,33.88,2,67.26,7.06,98.94,20,41.78,17.06,71.59,45.21,80.64,90.99,7.05,35.66,.17,69.64-16.05,101.82-13.48,26.73-32.01,48.96-58.64,63.63-29.31,16.15-64.83,9.93-84.02-14.67-14.6-18.71-13.27-41.42,3.54-58.16,11.31-11.26,25.45-17.4,40.56-21.49,5.72-1.55,9.91,1.24,11.72,6.67,1.77,5.32-.69,9.29-5.5,11.74-1.89,.96-4.05,1.37-6.02,2.2-5.47,2.3-11.16,4.24-16.31,7.13-9.61,5.4-18.43,12.26-18.12,24.54,.34,13.12,9.12,21.08,20.07,26.53,12.64,6.29,25.64,6.42,38.68,.84,17.14-7.34,30.49-19.38,41.45-34.11,21.13-28.4,32.72-60.11,31.12-95.85-1.7-37.81-19.45-66.22-52.35-84.62-34.05-19.05-71.72-24.35-110.99-27.67Z"/></svg>