<?xml version="1.0" encoding="UTF-8"?><svg id="a" xmlns="http://www.w3.org/2000/svg" viewBox="0 0 1000 1000"><defs><style>.b{fill:#fff;}</style></defs><path class="b" d="M527.71,669.43h-74.44v-167.4h-36.96v-56.1h36.91c0-3.84-.16-7.2,.03-10.53,1-17.8,.71-35.8,3.48-53.32,3.46-21.87,17.65-35.87,38.72-42.66,16.43-5.29,69.33-8,87.67-4.52,.14,1.71,.43,3.52,.43,5.33,.03,16.24,.02,32.48,.02,49.81-6.63,0-12.67,0-18.71,0-4.01,0-8.01-.07-12.01,.03-20.94,.52-25.03,4.67-25.23,25.76-.09,9.58-.02,19.16-.02,29.78h56.09c-2.2,19.32-4.26,37.5-6.38,56.15h-49.6v167.67Z"/><path class="b" d="M500.01,869.09c-203.53,0-369.11-165.57-369.11-369.11S296.48,130.91,500.01,130.91s369.08,165.57,369.08,369.08-165.57,369.11-369.08,369.11Zm0-724.47c-195.95,0-355.39,159.41-355.39,355.36s159.44,355.39,355.39,355.39,355.36-159.44,355.36-355.39S695.96,144.62,500.01,144.62Z"/></svg>