<?xml version="1.0" encoding="UTF-8"?><svg id="a" xmlns="http://www.w3.org/2000/svg" viewBox="0 0 1000 1000"><defs><style>.b{fill:#fff;}</style></defs><path class="b" d="M692.59,878.98H307.41c-102.77,0-186.39-83.63-186.39-186.39V307.41c0-102.77,83.63-186.39,186.39-186.39h385.17c102.77,0,186.39,83.63,186.39,186.39v385.17c0,102.77-83.63,186.39-186.39,186.39ZM307.41,136.05c-94.49,0-171.36,76.88-171.36,171.36v385.17c0,94.49,76.88,171.36,171.36,171.36h385.17c94.49,0,171.36-76.88,171.36-171.36V307.41c0-94.49-76.88-171.36-171.36-171.36H307.41Z"/><path class="b" d="M500,700.07c-110.31,0-200.07-89.76-200.07-200.07s89.76-200.07,200.07-200.07,200.07,89.76,200.07,200.07-89.76,200.07-200.07,200.07Zm0-385.11c-102.03,0-185.04,83.01-185.04,185.04s83.01,185.04,185.04,185.04,185.04-83.01,185.04-185.04-83.01-185.04-185.04-185.04Z"/><path class="b" d="M713.66,341.02c-34.05,0-61.76-27.68-61.76-61.73s27.71-61.76,61.76-61.76,61.76,27.71,61.76,61.76-27.71,61.73-61.76,61.73Zm0-108.46c-25.77,0-46.73,20.96-46.73,46.73s20.96,46.7,46.73,46.7,46.73-20.96,46.73-46.7-20.96-46.73-46.73-46.73Z"/></svg>