<svg id="Layer_2" data-name="Layer 2" xmlns="http://www.w3.org/2000/svg" viewBox="0 0 674.5 741.54"><defs><style>.cls-1,.cls-2{fill:none;stroke:#fff;stroke-miterlimit:10;}.cls-1{stroke-width:22px;}.cls-2{stroke-width:25px;}</style></defs><polygon class="cls-1" points="164.98 206.39 11 206.39 11 436.62 164.03 436.62 403.56 622.38 403.56 22.38 164.98 206.39"/><line class="cls-1" x1="165.88" y1="210.7" x2="165.88" y2="436.38"/><line class="cls-1" x1="206.88" y1="240.38" x2="206.88" y2="518.38"/><polygon class="cls-1" points="203.69 251.42 51 251.42 51 500.46 181.3 500.94 448 718.38 448 52.38 203.69 251.42"/><path class="cls-2" d="M671.84,291.6c46,30.77,77.37,92.68,77.37,164,0,72.27-32.21,134.84-79.14,165.19" transform="translate(-160 -122.62)"/><path class="cls-2" d="M714,232.29c64.17,42.94,108,129.36,108,229,0,100.88-45,188.23-110.47,230.59" transform="translate(-160 -122.62)"/></svg>