<?xml version="1.0" encoding="utf-8"?>
<!-- Generator: Adobe Illustrator 25.4.1, SVG Export Plug-In . SVG Version: 6.00 Build 0)  -->
<svg version="1.1" id="Layer_1" xmlns="http://www.w3.org/2000/svg" xmlns:xlink="http://www.w3.org/1999/xlink" x="0px" y="0px"
	 viewBox="0 0 502.4 341.4" style="enable-background:new 0 0 502.4 341.4;" xml:space="preserve">
<style type="text/css">
	.st0{fill:#F5F0E8;}
	.st1{fill:none;stroke:#F5F0E8;stroke-width:6;stroke-miterlimit:10;}
</style>
<g id="Layer_2_00000121243331766134569210000001184698500240994728_">
	<path class="st0" d="M112.3,112.7c6.8-8.2,12.6-17.2,17.2-26.8c4.8-9.8,7.7-20.4,8.7-31.2c0.9-11.3-0.2-21.6-7.2-31.2
		c-6.8-9.4-22.3-10.8-30-0.7c-1.6,2.2-3.5,4.3-3,7.3c0.1,0.7,0.2,1.5,1,1.6c0.7,0.2,1.5-0.2,1.8-0.9c0-0.1,0-0.2,0.1-0.3
		c0.2-0.6,0.4-1.1,0.6-1.7c4-9.1,16.3-11.2,23.3-4.9c7.9,7.1,9.9,16.2,9.5,26.1c-0.3,5.2-1,10.3-2.1,15.4
		c-1.4,6.7-3.2,13.4-6.4,19.5c-2.7,5.2-6,10.2-9.2,15.1c-3.9,6.2-8.7,11.8-14.2,16.7c-0.1-4.8-0.7-9-3.1-12.6
		c-6.3-9.3-16-12.3-26.4-13c-15.2-1-27.8,5.1-37.9,16.2c-6.2,6.9-9.1,15.3-7.5,24.6c1.9,10.8,9.7,16.4,19.4,18.8
		c11.4,2.8,22.4,0.9,32.4-5.5c2.7-1.6,5.2-3.4,7.5-5.4c0.6-0.8,1.7-1.1,2.6-0.7c0.8,0.4,0.8,1.2,0.6,1.9c-1.2,6.3,0,12.5-0.1,18.8
		C89.6,173.5,90,187.3,90,201c0,0.8,0.4,1.8-0.5,2.3s-1.4-0.5-2-1c-3.3-2.7-7.1-4.7-11.3-5.7c-1.9-0.5-4-0.6-5.9-0.2
		c-8.5,1.6-15,6-20.3,12.7c-10.8,13.6-14.6,28.7-10,45.5c2,7.4,9.6,16.6,20,15.6c2.8-0.3,5.7-0.5,8.5-0.7c1.6,0.1,3-0.4,2.8-2.3
		c-0.3-2.2-1.9-0.2-2.8-0.6c-3.6,0.6-6.2-1-8.3-3.7c-2.5-3-4.3-6.5-5.3-10.3c-2.1-7.8-2.6-15.9-1.5-23.8c1.2-9,3.6-17.3,9-24.7
		c1.4-1.9,3-3.8,5.4-4.4c6.7-1.7,16.1,3.3,18.7,9.8c2.3,5.9,3.5,12.3,3.5,18.7c0,8.1-0.1,16.1,0,24.2c0.1,10.1,7.1,17.7,16.4,17.8
		c1.9,0,3.9,0.1,5.6-1.6c-2.1-1.2-3.8,0.7-5.6,0.2c-2-2.7-3-6-2.9-9.3c0-12.9,0.1-25.8,0-38.7c-0.1-9.7-0.2-19.4-0.5-29.2
		c-0.6-21.5-0.2-43-0.2-64.5c0-1.3-0.1-2.5,0.9-3.7C106.7,119.8,109.5,116.2,112.3,112.7z M88.7,130.5c0,1.3-0.5,2.6-1.4,3.6
		c-8.1,7.5-16.9,13.7-31.9,14.3c-7.7,0.7-16.5-10-18.2-20.6c-3.1-18.9,12.9-32.8,29-32.5c7.5,0.1,14.3,1.7,20.1,6.6
		c0.8,0.7,1.6,1.2,1.7,2.5C88.4,113,89.1,121.7,88.7,130.5z"/>
	<path class="st0" d="M152.4,126c-15.9-0.8-27.6,9.5-32,24.1c-0.5,1.6-0.5,2.7,1.4,3.2s2.1-0.5,2.6-1.9c1.9-5.5,4-10.8,8.6-14.9
		c6.5-5.9,14.1-6.8,22.3-6.3c7.4,0.5,13.2,5.9,13.4,12.8c0.2,8.5,0,17.1,0,26.3c-1-0.4-2-0.8-3-1.4c-4.6-3-9.9-4-15.2-4.1
		c-14.1-0.2-25.3,10.3-31,22.2c-3.6,7.6-3.4,15.5-2.3,23.7c1.9,13.8,10.1,22.7,23.6,25.3c6.1,1.2,12.4-1.7,14.4-6.5
		c0.5-1.2,1.2-2.4-0.4-3.4c-1.8-1.1-2.2,0.4-3,1.4c-4,5-9.3,5.2-13.8,0.6c-2.1-2.1-2.9-4.8-3.7-7.6c-2.6-9.4-2.6-19.3-0.1-28.7
		c2-7.9,5.4-14.7,12.1-19.4c4.6-3.2,9.7-4,14.8-1c4.6,2.6,7.9,5.9,7.6,12.1c-0.5,11.2-0.1,22.3-0.1,33.5c0,1.9,0.1,3.6,2.4,4
		c2.6,0.4,5.1,0.9,7.6,1.7c2.5,0.8,2.9-0.1,2.8-2.2c0-26,0-52.1,0-78.1c0.1-1.4-0.5-2.8-1.6-3.8C172.4,130.5,162.7,126.4,152.4,126z
		"/>
	<path class="st0" d="M218,96.4v-4.5c-4.5,2.1-8.2,1.3-12-0.8c-4-2.3-8.3-4.1-12.8-5.3c-13.2-3.4-26.2,7.3-28,19.4
		c-1.1,7.2,5,13.4,11.7,12.1c1.5-0.3,2.8-0.9,2.5-2.8c-0.3-2.1-1.8-1.3-3-1c-3.5,0.7-6.5-1.2-6.9-4.5c-0.9-5.9,1.7-11.8,6.5-15.3
		c7.5-5.7,15.5-5.5,23.8-1.6c3.5,1.6,4.8,3.8,4.7,7.7c-0.1,53.9-0.2,107.7-0.1,161.6c0,1,0,1.9,0,2.9c0,0.7-0.2,1.6,0.7,1.8
		c0.4,0.1,1-0.4,1.5-0.8c2-1.5,3.7-3.8,5.9-4.5c5.1-1.5,5.5-4.9,5.5-9.3C217.9,199.9,217.9,148.2,218,96.4z"/>
	<path class="st0" d="M305.9,113.8c-0.9-1.5-2.6-2.3-4.3-2.1c-5.8,1.6-12.8,4.6-12.8,9.2c0,6.4,0.2,14,0,21.8
		c-0.1,6.5,0.3,13,0.1,19.4c-0.5,17.9-0.2,35.9-0.2,53.8l0,0c-4.1,4-10.9,0.9-13.1-2c-0.9-1.1-2.3-1.7-3.8-1.6
		c-2.9,0-5.1,1.4-7.4,2.9c-7.6,2.8-13.1-2-16-5.8c-3-4.2-4.9-9-5.4-14.2c-0.1-7.9,1.5-15.8,4.8-23.1c2.9-6.3,7.2-11.4,13.5-14.5
		c1.2-0.6,2.7-0.9,2.3-2.6c-0.6-2-2.2-1-3.5-0.8c-4,0.9-8.2-0.7-10.7-4.1c-5.4-6.9-5.5-14.3-2.1-22l0,0c1.2-2.8,3.2-5.1,5.7-6.8
		c3.2-1.8,5.6-2.5,8.4-0.2c0.5,0.5,1,1,1.6,1.4c0.6,0.6,1.6,0.6,2.3,0c0.7-0.6,0.8-1.5,0.3-2.2c-2.8-5.8-15.6-4.8-18.9-3.6
		c-5.3,1.9-7.8,6.4-10.2,11c-3,5.5-2.9,11.5-2.7,17.5c0,0.5,0,1,0,1.4c0.6,4.6,2.4,8.6,6.2,11.5c2.7,2.1,3,4,0.1,6.2
		c-1.3,1.1-2.3,2.3-3.2,3.8c-4,6.1-5.6,12.9-6.7,19.9v7.8l0,0c0.2,1.3,0.4,2.5,0.7,3.8c1.1,4.7,2.7,9.1,6.1,12.6
		c9.6,10.1,19.7,11.2,31.7,6.7c2.7-1,4.4-0.5,6.3,1.2c2.8,2.7,6.3,4.7,10,5.9c9.1,2.7,16.7-3,16.7-12.5c0-7.8,0-15.7,0-23.5v-6.4
		c0-3.6,0-7.1,0-10.7v-10.7c0-3.1-0.3-38,0-44.2c0-0.5,0-1,0-1.4l0.7-0.7c0.7,0.2,1.3,0.5,1.9,0.8c1.1,0.8,1.8,0.2,2.4-0.5
		C307.7,115.1,306.9,114.4,305.9,113.8z"/>
	<polyline class="st1" points="347.3,17.8 484.3,154.9 349.7,289.6 	"/>
	<polyline class="st1" points="348.9,51.5 485.9,188.6 351.3,323.2 	"/>
</g>
</svg>
