<svg xmlns="http://www.w3.org/2000/svg" viewBox="0 0 1080 1080"><defs><style>.cls-1{fill:#f5f0e8;}.cls-2{fill:none;stroke:#f5f0e8;stroke-miterlimit:10;stroke-width:6px;}</style></defs><g id="Layer_2" data-name="Layer 2"><path class="cls-1" d="M454.63,454.13a132.56,132.56,0,0,0,17.19-26.84,88.9,88.9,0,0,0,8.7-31.25c.88-11.26-.24-21.57-7.21-31.21-6.76-9.36-22.33-10.75-29.95-.73-1.64,2.16-3.51,4.26-3.05,7.32.11.74.16,1.47,1,1.64a1.42,1.42,0,0,0,1.85-1.18,10.17,10.17,0,0,1,.62-1.67c4-9.06,16.31-11.2,23.32-4.89,7.88,7.07,9.88,16.21,9.49,26.09a91.16,91.16,0,0,1-2.13,15.4c-1.44,6.69-3.18,13.38-6.39,19.47-2.74,5.21-5.95,10.2-9.17,15.15a81.52,81.52,0,0,1-14.16,16.74c-.07-4.84-.71-9-3.14-12.63-6.3-9.31-16-12.34-26.41-13-15.17-1-27.81,5.12-37.88,16.17-6.25,6.86-9.11,15.32-7.5,24.64,1.87,10.77,9.7,16.38,19.42,18.8,11.35,2.83,22.38.86,32.41-5.5a51.41,51.41,0,0,0,7.48-5.42,2.37,2.37,0,0,1,2.6-.74c.81.37.75,1.2.63,1.87-1.2,6.26,0,12.53-.11,18.8-.28,13.75.08,27.51.15,41.26,0,.78.38,1.81-.51,2.28s-1.43-.55-2-1a27.78,27.78,0,0,0-11.26-5.7,13.41,13.41,0,0,0-5.92-.22c-8.45,1.63-15,6-20.27,12.67-10.81,13.59-14.6,28.67-9.95,45.52,2,7.38,9.64,16.56,20,15.58,2.83-.27,5.66-.49,8.48-.73,1.61.07,3-.36,2.77-2.26-.31-2.22-1.86-.24-2.77-.57-3.58.56-6.18-1-8.33-3.71A27.59,27.59,0,0,1,397.36,594a60.64,60.64,0,0,1-1.45-23.85c1.16-9,3.62-17.32,8.95-24.68,1.38-1.91,3-3.79,5.42-4.43,6.7-1.74,16.1,3.26,18.68,9.8a50.92,50.92,0,0,1,3.47,18.66c0,8.07-.07,16.14,0,24.2.13,10.12,7.13,17.65,16.41,17.83,1.92,0,3.88.12,5.57-1.58-2.07-1.22-3.78.73-5.56.15a14.26,14.26,0,0,1-2.87-9.3c0-12.9.11-25.8,0-38.7-.11-9.72-.21-19.44-.48-29.16-.61-21.5-.2-43-.2-64.55,0-1.3-.06-2.54.9-3.69C449.07,461.19,451.8,457.61,454.63,454.13ZM431,471.88a5.1,5.1,0,0,1-1.41,3.56c-8.12,7.53-16.94,13.7-31.85,14.33-7.66.66-16.47-10-18.21-20.65-3.08-18.85,12.94-32.77,29-32.51,7.5.13,14.31,1.68,20.14,6.58.82.69,1.6,1.23,1.66,2.52C430.72,454.43,431.48,463.13,431,471.88Z"/><path class="cls-1" d="M494.79,467.38c-15.93-.84-27.58,9.46-32,24.11-.48,1.62-.53,2.66,1.41,3.23s2.06-.49,2.56-1.88c1.94-5.46,4-10.78,8.56-14.88,6.45-5.86,14.11-6.81,22.26-6.3,7.36.46,13.17,5.86,13.35,12.77.21,8.54,0,17.1,0,26.26a25.69,25.69,0,0,1-3-1.35c-4.65-3-9.91-4-15.23-4.09-14.09-.24-25.31,10.34-30.95,22.16-3.61,7.56-3.43,15.53-2.29,23.65,1.92,13.75,10.13,22.73,23.62,25.34,6.09,1.18,12.37-1.68,14.42-6.55.52-1.23,1.17-2.44-.41-3.42-1.77-1.09-2.16.44-3,1.44-4,5-9.27,5.2-13.75.63-2.09-2.14-2.94-4.81-3.72-7.56a55,55,0,0,1-.11-28.69c1.95-7.89,5.38-14.66,12.14-19.36,4.64-3.23,9.74-4,14.78-1.05,4.56,2.64,7.86,5.93,7.61,12.12-.45,11.15-.11,22.34-.15,33.52,0,1.91.06,3.56,2.44,4a55.11,55.11,0,0,1,7.61,1.67c2.49.85,2.86-.11,2.85-2.25q0-39.06,0-78.11a4.78,4.78,0,0,0-1.57-3.78A42.17,42.17,0,0,0,494.79,467.38Z"/><path class="cls-1" d="M560.33,437.82v-4.5c-4.5,2.06-8.23,1.3-12-.79a54.23,54.23,0,0,0-12.81-5.26c-13.2-3.44-26.19,7.3-28,19.35-1.08,7.18,5,13.39,11.65,12.12,1.52-.29,2.82-.88,2.52-2.77-.34-2.13-1.75-1.27-3-1-3.51.66-6.51-1.18-6.87-4.45a16,16,0,0,1,6.5-15.28c7.53-5.69,15.48-5.54,23.78-1.63,3.47,1.64,4.75,3.82,4.74,7.74q-.2,80.81-.09,161.6c0,1,0,1.91,0,2.86,0,.68-.18,1.6.71,1.77.44.08,1-.44,1.49-.79,2-1.52,3.67-3.83,5.88-4.47,5.1-1.47,5.53-4.92,5.53-9.28Q560.26,515.42,560.33,437.82Z"/><path class="cls-1" d="M648.21,455.23a4.54,4.54,0,0,0-4.29-2.14c-5.75,1.56-12.83,4.65-12.83,9.19,0,6.39.18,14,0,21.79-.1,6.45.29,13,.11,19.39-.52,17.92-.18,35.87-.18,53.8h0c-4.09,4-10.88.87-13.14-2a4.35,4.35,0,0,0-3.77-1.56c-2.88,0-5.14,1.38-7.4,2.88-7.61,2.79-13.14-2-16-5.82a29.51,29.51,0,0,1-5.39-14.15,53.24,53.24,0,0,1,4.79-23.06c2.89-6.32,7.18-11.42,13.52-14.53,1.23-.6,2.74-.93,2.26-2.59-.58-2-2.22-1-3.55-.81a10.49,10.49,0,0,1-10.65-4.09c-5.42-6.87-5.49-14.29-2.11-22h0a14.82,14.82,0,0,1,5.72-6.76c3.19-1.8,5.58-2.46,8.36-.18.55.45,1,1,1.57,1.44a1.6,1.6,0,0,0,2.26,0,1.68,1.68,0,0,0,.31-2.24c-2.84-5.75-15.63-4.83-18.89-3.63-5.28,1.92-7.76,6.44-10.19,11-3,5.52-2.89,11.52-2.68,17.54,0,.47,0,.95,0,1.42.63,4.6,2.37,8.63,6.15,11.51,2.69,2.06,2.95,4,.13,6.16a14.53,14.53,0,0,0-3.16,3.78c-4,6.09-5.58,12.92-6.71,19.93v7.85h0c.24,1.27.44,2.55.72,3.81,1.06,4.66,2.72,9.06,6.07,12.59,9.63,10.14,19.7,11.25,31.67,6.7,2.74-1,4.36-.55,6.31,1.22a26,26,0,0,0,10,5.91c9.06,2.7,16.67-3,16.68-12.45,0-7.83,0-15.66,0-23.49v-6.42q0-5.34,0-10.7v-10.7c0-3.09-.28-38,0-44.24,0-.47,0-.95,0-1.42l.72-.71a8.82,8.82,0,0,1,1.88.81c1.07.79,1.75.23,2.41-.51C650,456.5,649.28,455.8,648.21,455.23Z"/><polyline class="cls-2" points="689.62 359.22 826.69 496.3 692.02 630.96"/><polyline class="cls-2" points="691.22 392.89 828.29 529.96 693.63 664.63"/></g></svg>